<?xml version="1.0" encoding="UTF-8" standalone="no"?>
<svg width="24px" height="14px" viewBox="0 0 24 14" version="1.1" xmlns="http://www.w3.org/2000/svg" xmlns:xlink="http://www.w3.org/1999/xlink">
    <!-- Generator: sketchtool 3.8.3 (29802) - http://www.bohemiancoding.com/sketch -->
    <title>6B5EE428-7EF2-4462-B40D-3E04845E5FAD</title>
    <desc>Created with sketchtool.</desc>
    <defs></defs>
    <g id="Design" stroke="none" stroke-width="1" fill="none" fill-rule="evenodd">
        <g id="account_2" transform="translate(-314.000000, -438.000000)" fill="#FEB7A9">
            <g id="arrows" transform="translate(314.000000, 438.000000)">
                <path d="M24.0068729,1.99656357 C24.0068729,2.2050401 23.9266896,2.38946162 23.766323,2.54982818 L12.556701,13.7594502 C12.3963345,13.9198167 12.211913,14 12.0034364,14 C11.7949599,14 11.6105384,13.9198167 11.4501718,13.7594502 L0.240549828,2.54982818 C0.080183268,2.38946162 0,2.2050401 0,1.99656357 C0,1.78808705 0.080183268,1.60366553 0.240549828,1.44329897 L1.44329897,0.240549828 C1.60366553,0.080183268 1.78808705,0 1.99656357,0 C2.2050401,0 2.38946162,0.080183268 2.54982818,0.240549828 L12.0034364,9.69415808 L21.4570447,0.240549828 C21.6174112,0.080183268 21.8018328,0 22.0103093,0 C22.2187858,0 22.4032073,0.080183268 22.5635739,0.240549828 L23.766323,1.44329897 C23.9266896,1.60366553 24.0068729,1.78808705 24.0068729,1.99656357 L24.0068729,1.99656357 Z" id="arrowUp_icon" transform="translate(12.003436, 7.000000) scale(1, -1) translate(-12.003436, -7.000000) "></path>
            </g>
        </g>
    </g>
</svg>