<?xml version="1.0" encoding="UTF-8" standalone="no"?>
<svg width="5px" height="8px" viewBox="0 0 5 8" version="1.1" xmlns="http://www.w3.org/2000/svg" xmlns:xlink="http://www.w3.org/1999/xlink">
    <!-- Generator: sketchtool 3.8.3 (29802) - http://www.bohemiancoding.com/sketch -->
    <title>696646D4-58C9-41A1-8CF1-863D471FB27D</title>
    <desc>Created with sketchtool.</desc>
    <defs></defs>
    <g id="Symbols" stroke="none" stroke-width="1" fill="none" fill-rule="evenodd">
        <g id="application_status_2_1024" transform="translate(-353.000000, -25.000000)" fill="#000000">
            <path d="M357.665331,25.6653307 C357.665331,25.7348029 357.638611,25.7962592 357.58517,25.8496994 L354.43487,29 L357.58517,32.1503006 C357.638611,32.2037408 357.665331,32.2651971 357.665331,32.3346693 C357.665331,32.4041416 357.638611,32.4655979 357.58517,32.5190381 L357.184369,32.9198397 C357.130929,32.9732799 357.069472,33 357,33 C356.930528,33 356.869071,32.9732799 356.815631,32.9198397 L353.08016,29.1843687 C353.02672,29.1309285 353,29.0694723 353,29 C353,28.9305277 353.02672,28.8690715 353.08016,28.8156313 L356.815631,25.0801603 C356.869071,25.0267201 356.930528,25 357,25 C357.069472,25 357.130929,25.0267201 357.184369,25.0801603 L357.58517,25.4809619 C357.638611,25.5344021 357.665331,25.5958584 357.665331,25.6653307 L357.665331,25.6653307 Z" id="arrow-right-" transform="translate(355.332665, 29.000000) scale(-1, 1) translate(-355.332665, -29.000000) "></path>
        </g>
    </g>
</svg>