<?xml version="1.0" encoding="UTF-8" standalone="no"?>
<svg width="24px" height="14px" viewBox="0 0 24 14" version="1.1" xmlns="http://www.w3.org/2000/svg" xmlns:xlink="http://www.w3.org/1999/xlink">
    <!-- Generator: sketchtool 3.8.3 (29802) - http://www.bohemiancoding.com/sketch -->
    <title>1542363B-6F8D-46A8-9A8E-16417E7D9A59</title>
    <desc>Created with sketchtool.</desc>
    <defs></defs>
    <g id="Design" stroke="none" stroke-width="1" fill="none" fill-rule="evenodd">
        <g id="account_2" transform="translate(-314.000000, -472.000000)" fill="#FD7054">
            <g id="arrows" transform="translate(314.000000, 438.000000)">
                <path d="M24.0068729,35.9965636 C24.0068729,36.2050401 23.9266896,36.3894616 23.766323,36.5498282 L12.556701,47.7594502 C12.3963345,47.9198167 12.211913,48 12.0034364,48 C11.7949599,48 11.6105384,47.9198167 11.4501718,47.7594502 L0.240549828,36.5498282 C0.080183268,36.3894616 0,36.2050401 0,35.9965636 C0,35.788087 0.080183268,35.6036655 0.240549828,35.443299 L1.44329897,34.2405498 C1.60366553,34.0801833 1.78808705,34 1.99656357,34 C2.2050401,34 2.38946162,34.0801833 2.54982818,34.2405498 L12.0034364,43.6941581 L21.4570447,34.2405498 C21.6174112,34.0801833 21.8018328,34 22.0103093,34 C22.2187858,34 22.4032073,34.0801833 22.5635739,34.2405498 L23.766323,35.443299 C23.9266896,35.6036655 24.0068729,35.788087 24.0068729,35.9965636 L24.0068729,35.9965636 Z" id="arrowDown_icon"></path>
            </g>
        </g>
    </g>
</svg>