<?xml version="1.0" encoding="UTF-8" standalone="no"?>
<svg width="20px" height="20px" viewBox="0 0 20 20" version="1.1" xmlns="http://www.w3.org/2000/svg" xmlns:xlink="http://www.w3.org/1999/xlink">
    <!-- Generator: sketchtool 3.8.3 (29802) - http://www.bohemiancoding.com/sketch -->
    <title>9A07E31C-E32A-4CED-8753-721DF9A6444B</title>
    <desc>Created with sketchtool.</desc>
    <defs></defs>
    <g id="Symbols" stroke="none" stroke-width="1" fill="none" fill-rule="evenodd">
        <g id="menu__account_1024" transform="translate(-534.000000, -12.000000)" fill="#00A1BE">
            <path d="M534.532727,28.3090909 C533.822424,29.0193939 533.822424,30.169697 534.532727,30.88 C534.887879,31.2351515 535.353333,31.4121212 535.818788,31.4121212 C536.284242,31.4121212 536.749697,31.2351515 537.104848,30.88 L543.074545,24.910303 L540.502424,22.3393939 L534.532727,28.3090909 L534.532727,28.3090909 Z M549.452727,17.2448485 L552.050303,15.9006061 L553.412727,13.2690909 L552.143636,12 L549.512121,13.3624242 L548.167879,15.96 L545.001818,19.1260606 L546.286667,20.4109091 L549.452727,17.2448485 Z M550.021212,24.1454545 C549.938788,24.1406061 549.86,24.1212121 549.776364,24.1212121 C549.332727,24.1212121 548.912121,24.2121212 548.519394,24.3575758 L541.055152,16.8933333 C541.200606,16.5006061 541.291515,16.08 541.291515,15.6363636 C541.291515,15.5527273 541.272121,15.4739394 541.267273,15.3915152 C541.138788,13.4993939 539.58,12 537.655152,12 C537.095152,12 536.570303,12.1369697 536.096364,12.3636364 L538.512121,14.7793939 C538.639394,14.9066667 538.726667,15.0569697 538.784848,15.2157576 C538.943636,15.6460606 538.857576,16.1466667 538.512121,16.4933333 C538.275758,16.729697 537.965455,16.8484848 537.655152,16.8484848 C537.512121,16.8484848 537.370303,16.8169697 537.234545,16.7660606 C537.075758,16.7066667 536.925455,16.6206061 536.798182,16.4933333 L534.382424,14.0775758 C534.155758,14.5515152 534.018788,15.0763636 534.018788,15.6363636 C534.018788,17.5612121 535.518182,19.12 537.410303,19.2484848 C537.492727,19.2533333 537.571515,19.2727273 537.655152,19.2727273 C538.098788,19.2727273 538.519394,19.1818182 538.912121,19.0363636 L546.376364,26.5006061 C546.230909,26.8933333 546.14,27.3139394 546.14,27.7575758 C546.14,27.8412121 546.159394,27.92 546.164242,28.0024242 C546.292727,29.8945455 547.851515,31.3939394 549.776364,31.3939394 C550.336364,31.3939394 550.861212,31.2569697 551.335152,31.030303 L548.919394,28.6145455 C548.792121,28.4872727 548.704848,28.3369697 548.646667,28.1781818 C548.487879,27.7478788 548.573939,27.2472727 548.919394,26.9006061 C549.155758,26.6642424 549.466061,26.5454545 549.776364,26.5454545 C549.919394,26.5454545 550.061212,26.5769697 550.19697,26.6278788 C550.355758,26.6872727 550.506061,26.7733333 550.633333,26.9006061 L553.049091,29.3163636 C553.275758,28.8424242 553.412727,28.3175758 553.412727,27.7575758 C553.412727,25.8327273 551.913333,24.2739394 550.021212,24.1454545 L550.021212,24.1454545 Z" id="Shape"></path>
        </g>
    </g>
</svg>