<?xml version="1.0" encoding="UTF-8" standalone="no"?>
<svg width="14px" height="14px" viewBox="0 0 14 14" version="1.1" xmlns="http://www.w3.org/2000/svg" xmlns:xlink="http://www.w3.org/1999/xlink">
    <!-- Generator: sketchtool 3.8.3 (29802) - http://www.bohemiancoding.com/sketch -->
    <title>4A06173A-4DF4-4B40-9B92-9E074170BA2E</title>
    <desc>Created with sketchtool.</desc>
    <defs></defs>
    <g id="Symbols" stroke="none" stroke-width="1" fill="none" fill-rule="evenodd">
        <g id="menu" transform="translate(-1054.000000, -23.000000)" fill="#00A1BE">
            <path d="M1059.67184,26.212576 C1059.48962,24.1152335 1057.30297,23.0861323 1057.21043,23.0441282 C1057.12362,23.0030787 1057.02631,22.9906684 1056.93281,23.0068973 C1054.40844,23.4259839 1054.02873,24.8961284 1054.01347,24.9572253 C1053.99248,25.0431429 1053.9963,25.1319243 1054.02301,25.2149779 C1057.03394,34.5628059 1063.29144,36.2954762 1065.34834,36.8653959 C1065.50671,36.9093093 1065.63741,36.9446309 1065.73663,36.9770887 C1065.78433,36.9933175 1065.83394,37 1065.88355,37 C1065.95129,37 1066.01902,36.9856804 1066.08104,36.9570412 C1066.144,36.9284021 1067.63039,36.2276968 1067.99387,33.9422904 C1068.01009,33.8430079 1067.99387,33.7399068 1067.94808,33.6501707 C1067.91564,33.5871645 1067.1381,32.106519 1064.98199,31.5833767 C1064.83125,31.5442365 1064.6767,31.5843313 1064.56031,31.6836138 C1063.88008,32.2649891 1062.94036,32.88455 1062.53489,32.9485108 C1059.81685,31.6186983 1058.29899,29.0669475 1058.24174,28.5829454 C1058.20835,28.3108732 1058.83134,27.3552792 1059.54782,26.5782029 C1059.63845,26.479875 1059.68424,26.3462255 1059.67184,26.212576 L1059.67184,26.212576 Z" id="phone"></path>
        </g>
    </g>
</svg>