<?xml version="1.0" encoding="UTF-8" standalone="no"?>
<svg width="10px" height="14px" viewBox="0 0 10 14" version="1.1" xmlns="http://www.w3.org/2000/svg" xmlns:xlink="http://www.w3.org/1999/xlink">
    <!-- Generator: sketchtool 3.8.3 (29802) - http://www.bohemiancoding.com/sketch -->
    <title>10BFAA30-5A7D-4861-A98F-98560BADE3DF</title>
    <desc>Created with sketchtool.</desc>
    <defs></defs>
    <g id="Symbols" stroke="none" stroke-width="1" fill="none" fill-rule="evenodd">
        <g id="menu" transform="translate(-717.000000, -23.000000)" fill="#00A1BE">
            <path d="M722,30.1967449 C723.281663,30.1967449 724.324295,29.1722692 724.324295,27.9129264 C724.324295,26.6535837 723.281663,25.629108 722,25.629108 C720.718337,25.629108 719.675705,26.6535837 719.675705,27.9129264 C719.675705,29.1722692 720.718337,30.1967449 722,30.1967449 L722,30.1967449 Z M722,26.5054773 C722.789333,26.5054773 723.432394,27.1364632 723.432394,27.9129264 C723.432394,28.6893897 722.790225,29.3203756 722,29.3203756 C721.209775,29.3203756 720.567606,28.6885133 720.567606,27.9129264 C720.567606,27.1373396 721.209775,26.5054773 722,26.5054773 L722,26.5054773 Z M721.675348,36.7844131 C721.750268,36.8659155 721.822512,36.9184977 721.89208,36.9553052 C721.892972,36.9561815 721.894756,36.9561815 721.895648,36.9570579 C721.94381,36.9815962 721.991081,37 722.035676,37 C722.080271,37 722.127542,36.9815962 722.175705,36.9570579 C722.176597,36.9561815 722.17838,36.9561815 722.179272,36.9553052 C722.248841,36.9184977 722.321085,36.8659155 722.396004,36.7844131 C722.396004,36.7844131 726.541563,32.3543662 726.958081,28.5158685 C726.983054,28.3178091 727,28.1171205 727,27.9129264 C727,25.199687 724.761327,23 722,23 C719.238673,23 717,25.199687 717,27.9129264 C717,28.120626 717.016946,28.3230673 717.042811,28.5237559 C717.470032,32.3605008 721.675348,36.7844131 721.675348,36.7844131 L721.675348,36.7844131 Z M722,23.8763693 C724.26543,23.8763693 726.108098,25.6869484 726.108098,27.9129264 C726.108098,28.0610329 726.097396,28.2187793 726.071531,28.4229734 C725.75223,31.3640689 722.941848,34.8152113 722.036568,35.8651017 C721.108098,34.8134585 718.257581,31.3710798 717.927578,28.4159624 C717.903496,28.2222848 717.891902,28.0627856 717.891902,27.9129264 C717.891902,25.6869484 719.73457,23.8763693 722,23.8763693 L722,23.8763693 Z" id="location"></path>
        </g>
    </g>
</svg>