<?xml version="1.0" encoding="UTF-8" standalone="no"?>
<svg width="23px" height="20px" viewBox="0 0 23 20" version="1.1" xmlns="http://www.w3.org/2000/svg" xmlns:xlink="http://www.w3.org/1999/xlink">
    <!-- Generator: sketchtool 3.8.3 (29802) - http://www.bohemiancoding.com/sketch -->
    <title>BBFC12D4-4873-4238-BEC7-585FC70FB4D3</title>
    <desc>Created with sketchtool.</desc>
    <defs></defs>
    <g id="Symbols" stroke="none" stroke-width="1" fill="none" fill-rule="evenodd">
        <g id="menu__account_1024" transform="translate(-609.000000, -11.000000)" fill="#00A1BE">
            <path d="M613.327143,29.5714286 C613.327143,30.081808 613.599427,30.553418 614.041429,30.8086077 C614.48343,31.0637974 615.027998,31.0637974 615.47,30.8086077 C615.912002,30.553418 616.184286,30.081808 616.184286,29.5714286 C616.184286,28.7824504 615.544692,28.1428571 614.755714,28.1428571 C613.966736,28.1428571 613.327143,28.7824504 613.327143,29.5714286 L613.327143,29.5714286 Z M626.184286,29.5714286 C626.184286,30.081808 626.45657,30.553418 626.898571,30.8086077 C627.340573,31.0637974 627.885141,31.0637974 628.327143,30.8086077 C628.769144,30.553418 629.041429,30.081808 629.041429,29.5714286 C629.041429,28.7824504 628.401835,28.1428571 627.612857,28.1428571 C626.823879,28.1428571 626.184286,28.7824504 626.184286,29.5714286 L626.184286,29.5714286 Z M609,11.7142857 C609,12.1085714 609.32,12.4285714 609.714286,12.4285714 L611.198571,12.4285714 L612.085714,16.2228571 L613.327143,22.4285714 C613.327143,22.48 613.351429,22.5242857 613.357143,22.5742857 L612.63,25.8457143 C612.582857,26.0571429 612.634286,26.2785714 612.77,26.4471429 C612.905714,26.6171429 613.11,26.7142857 613.327143,26.7142857 L629.532857,26.7142857 C629.927143,26.7142857 630.247143,26.3942857 630.247143,26 C630.247143,25.6057143 629.927143,25.2857143 629.532857,25.2857143 L614.218571,25.2857143 L614.545714,23.8142857 C614.617143,23.8257143 614.681429,23.8571429 614.755714,23.8571429 L627.777143,23.8571429 C628.565714,23.8571429 629.041429,23.7014286 629.421429,22.7857143 L631.741429,15.6685714 C632.144286,14.3928571 631.26,13.8571429 630.47,13.8571429 L613.327143,13.8571429 C613.215714,13.8571429 613.118571,13.8957143 613.014286,13.92 L612.46,11.5514286 C612.384286,11.2285714 612.097143,11 611.764286,11 L609.714286,11 C609.318571,11 609,11.32 609,11.7142857 L609,11.7142857 Z M613.355714,15.2857143 L630.362857,15.2857143 L628.082857,22.2842857 C628.055714,22.3457143 628.032857,22.39 628.015714,22.42 C627.968571,22.4242857 627.894286,22.4285714 627.777143,22.4285714 L614.755714,22.4285714 L614.755714,22.2871429 L614.728571,22.1485714 L613.355714,15.2857143 L613.355714,15.2857143 Z" id="Shape"></path>
        </g>
    </g>
</svg>