<?xml version="1.0" encoding="UTF-8" standalone="no"?>
<svg width="35px" height="24px" viewBox="0 0 35 24" version="1.1" xmlns="http://www.w3.org/2000/svg" xmlns:xlink="http://www.w3.org/1999/xlink">
    <!-- Generator: sketchtool 3.8.3 (29802) - http://www.bohemiancoding.com/sketch -->
    <title>62E6F1E6-2315-4E09-882B-AE00503EAD2C</title>
    <desc>Created with sketchtool.</desc>
    <defs></defs>
    <g id="Design" stroke="none" stroke-width="1" fill="none" fill-rule="evenodd">
        <g id="home_step_1" transform="translate(-1580.000000, -392.000000)" fill="#F1C2B9">
            <g id="side_1" transform="translate(1530.000000, 90.000000)">
                <g id="select" transform="translate(50.000000, 160.000000)">
                    <path d="M7.58333333,161.2 C6.78125,161.2 6.09461805,160.90625 5.5234375,160.31875 C4.95225695,159.73125 4.66666667,159.025 4.66666667,158.2 L4.66666667,145 C4.66666667,144.175 4.95225695,143.46875 5.5234375,142.88125 C6.09461805,142.29375 6.78125,142 7.58333333,142 L27.4166667,142 C28.21875,142 28.905382,142.29375 29.4765625,142.88125 C30.047743,143.46875 30.3333333,144.175 30.3333333,145 L30.3333333,158.2 C30.3333333,159.025 30.047743,159.73125 29.4765625,160.31875 C28.905382,160.90625 28.21875,161.2 27.4166667,161.2 L7.58333333,161.2 L7.58333333,161.2 Z M7,145 L7,158.2 C7,158.3625 7.0577257,158.503125 7.17317708,158.621875 C7.28862847,158.740625 7.42534722,158.8 7.58333333,158.8 L27.4166667,158.8 C27.5746528,158.8 27.7113715,158.740625 27.8268229,158.621875 C27.9422743,158.503125 28,158.3625 28,158.2 L28,145 C28,144.8375 27.9422743,144.696875 27.8268229,144.578125 C27.7113715,144.459375 27.5746528,144.4 27.4166667,144.4 L7.58333333,144.4 C7.42534722,144.4 7.28862847,144.459375 7.17317708,144.578125 C7.0577257,144.696875 7,144.8375 7,145 L7,145 Z M32.0833333,162.4 L35,162.4 L35,164.2 C35,164.7 34.7144097,165.125 34.1432292,165.475 C33.5720486,165.825 32.8854167,166 32.0833333,166 L2.91666667,166 C2.11458333,166 1.42795138,165.825 0.856770833,165.475 C0.285590284,165.125 0,164.7 0,164.2 L0,162.4 L2.91666667,162.4 L32.0833333,162.4 L32.0833333,162.4 Z M18.9583333,164.2 C19.1527778,164.2 19.25,164.1 19.25,163.9 C19.25,163.7 19.1527778,163.6 18.9583333,163.6 L16.0416667,163.6 C15.8472222,163.6 15.75,163.7 15.75,163.9 C15.75,164.1 15.8472222,164.2 16.0416667,164.2 L18.9583333,164.2 L18.9583333,164.2 Z" id="laptop_icon"></path>
                </g>
            </g>
        </g>
    </g>
</svg>