<?xml version="1.0" encoding="UTF-8" standalone="no"?>
<svg width="316px" height="60px" viewBox="0 0 316 60" version="1.1" xmlns="http://www.w3.org/2000/svg" xmlns:xlink="http://www.w3.org/1999/xlink">
    <!-- Generator: sketchtool 3.8.3 (29802) - http://www.bohemiancoding.com/sketch -->
    <title>D6611C5E-45FB-43EB-BDD2-DDD0605F1935</title>
    <desc>Created with sketchtool.</desc>
    <defs></defs>
    <g id="Symbols" stroke="none" stroke-width="1" fill="none" fill-rule="evenodd">
        <g id="menu_account">
            <g id="logo">
                <polygon id="Fill-1" fill="#009DB6" points="0 59.9999592 316 59.9999592 316 0 0 0"></polygon>
                <g id="Group-22" transform="translate(36.000000, 18.000000)" fill="#FFFFFF">
                    <path d="M69.9449318,8.13761115 C69.9449318,6.92109177 69.0330372,6.34658464 67.8846592,6.34658464 L63.561507,6.34658464 L63.561507,9.89490551 L67.8846592,9.89490551 C69.0330372,9.89490551 69.9449318,9.32039837 69.9449318,8.13761115 L69.9449318,8.13761115 Z M56.7390732,22.9390931 L56.7390732,0.398957172 L68.7627994,0.398957172 C74.0316819,0.398957172 76.8687098,3.91346431 76.8687098,8.13761115 C76.8687098,12.327985 74.0316819,15.8424922 68.7627994,15.8424922 L63.561507,15.8424922 L63.561507,22.9390931 L56.7390732,22.9390931 Z" id="Fill-2"></path>
                    <path d="M95.6131179,11.6859116 C95.6131179,8.5431516 93.4853368,6.0424446 90.2092184,6.0424446 C86.9330593,6.0424446 84.8052374,8.5431516 84.8052374,11.6859116 C84.8052374,14.8287124 86.9330593,17.3294194 90.2092184,17.3294194 C93.4853368,17.3294194 95.6131179,14.8287124 95.6131179,11.6859116 M77.8814594,11.6859116 C77.8814594,4.75829776 83.2516046,0.0272304555 90.2092184,0.0272304555 C97.1667915,0.0272304555 102.536937,4.75829776 102.536937,11.6859116 C102.536937,18.6135663 97.1667915,23.3446336 90.2092184,23.3446336 C83.2516046,23.3446336 77.8814594,18.6135663 77.8814594,11.6859116" id="Fill-4"></path>
                    <polygon id="Fill-6" points="104.968355 22.9391013 104.968355 0.39896533 111.790789 0.39896533 111.790789 16.9914738 120.33579 16.9914738 120.33579 22.9391013"></polygon>
                    <path d="M138.911957,11.6859116 C138.911957,8.5431516 136.784135,6.0424446 133.508016,6.0424446 C130.231898,6.0424446 128.104076,8.5431516 128.104076,11.6859116 C128.104076,14.8287124 130.231898,17.3294194 133.508016,17.3294194 C136.784135,17.3294194 138.911957,14.8287124 138.911957,11.6859116 M121.180298,11.6859116 C121.180298,4.75829776 126.550443,0.0272304555 133.508016,0.0272304555 C140.46563,0.0272304555 145.835775,4.75829776 145.835775,11.6859116 C145.835775,18.6135663 140.46563,23.3446336 133.508016,23.3446336 C126.550443,23.3446336 121.180298,18.6135663 121.180298,11.6859116" id="Fill-8"></path>
                    <polygon id="Fill-10" points="168.194183 22.9391013 168.194183 9.38795241 163.161784 22.9391013 160.122067 22.9391013 155.089628 9.38795241 155.089628 22.9391013 148.267194 22.9391013 148.267194 0.39896533 157.690294 0.39896533 161.641905 11.2128334 165.593598 0.39896533 175.016657 0.39896533 175.016657 22.9391013"></polygon>
                    <path d="M188.830198,7.09003399 L186.601073,14.3555812 L191.059323,14.3555812 L188.830198,7.09003399 Z M193.693704,22.9390891 L192.883113,20.3032087 L184.777243,20.3032087 L183.966652,22.9390891 L176.232242,22.9390891 L184.540841,0.398953093 L193.119596,0.398953093 L201.428113,22.9390891 L193.693704,22.9390891 Z" id="Fill-12"></path>
                    <polygon id="Fill-14" points="205.447017 22.9391013 205.447017 6.34659279 199.401379 6.34659279 199.401379 0.39896533 218.281375 0.39896533 218.281375 6.34659279 212.269491 6.34659279 212.269491 22.9391013"></polygon>
                    <path d="M236.55326,11.6859116 C236.55326,8.5431516 234.425479,6.0424446 231.149361,6.0424446 C227.873202,6.0424446 225.74538,8.5431516 225.74538,11.6859116 C225.74538,14.8287124 227.873202,17.3294194 231.149361,17.3294194 C234.425479,17.3294194 236.55326,14.8287124 236.55326,11.6859116 M218.821642,11.6859116 C218.821642,4.75829776 224.191788,0.0272304555 231.149361,0.0272304555 C238.106934,0.0272304555 243.477079,4.75829776 243.477079,11.6859116 C243.477079,18.6135663 238.106934,23.3446336 231.149361,23.3446336 C224.191788,23.3446336 218.821642,18.6135663 218.821642,11.6859116" id="Fill-16"></path>
                    <polygon id="Fill-18" points="24.1799624 22.9435799 10.4886216 22.9435799 -2.03829968e-05 0.42828416 13.6913612 0.42828416"></polygon>
                    <polygon id="Fill-20" points="31.4810011 17.3147559 23.6573953 17.3147559 15.7047243 0.42828416 37.9531327 0.42828416"></polygon>
                </g>
            </g>
        </g>
    </g>
</svg>