<?xml version="1.0" encoding="UTF-8" standalone="no"?>
<svg width="25px" height="18px" viewBox="0 0 25 18" version="1.1" xmlns="http://www.w3.org/2000/svg" xmlns:xlink="http://www.w3.org/1999/xlink">
    <!-- Generator: sketchtool 3.8.3 (29802) - http://www.bohemiancoding.com/sketch -->
    <title>CF24BC7E-C868-4007-A9AA-50EA0C7A931D</title>
    <desc>Created with sketchtool.</desc>
    <defs></defs>
    <g id="Symbols" stroke="none" stroke-width="1" fill="none" fill-rule="evenodd">
        <g id="menu__account_1024" transform="translate(-985.000000, -21.000000)" fill="#00A1BE">
            <path d="M986.214286,31.2142857 L1008.07143,31.2142857 C1008.74171,31.2142857 1009.28571,30.6702857 1009.28571,30 C1009.28571,29.3297143 1008.74171,28.7857143 1008.07143,28.7857143 L986.214286,28.7857143 C985.544,28.7857143 985,29.3297143 985,30 C985,30.6702857 985.544,31.2142857 986.214286,31.2142857 L986.214286,31.2142857 Z M986.214286,23.9285714 L1008.07143,23.9285714 C1008.74171,23.9285714 1009.28571,23.3845714 1009.28571,22.7142857 C1009.28571,22.044 1008.74171,21.5 1008.07143,21.5 L986.214286,21.5 C985.544,21.5 985,22.044 985,22.7142857 C985,23.3845714 985.544,23.9285714 986.214286,23.9285714 L986.214286,23.9285714 Z M986.214286,38.5 L1008.07143,38.5 C1008.74171,38.5 1009.28571,37.956 1009.28571,37.2857143 C1009.28571,36.6154286 1008.74171,36.0714286 1008.07143,36.0714286 L986.214286,36.0714286 C985.544,36.0714286 985,36.6154286 985,37.2857143 C985,37.956 985.544,38.5 986.214286,38.5 L986.214286,38.5 Z" id="Shape"></path>
        </g>
    </g>
</svg>