<?xml version="1.0" encoding="UTF-8" standalone="no"?>
<svg width="15px" height="24px" viewBox="0 0 15 24" version="1.1" xmlns="http://www.w3.org/2000/svg" xmlns:xlink="http://www.w3.org/1999/xlink">
    <!-- Generator: sketchtool 3.8.3 (29802) - http://www.bohemiancoding.com/sketch -->
    <title>970AC940-A0D5-4FEB-872D-A5EF529E8506</title>
    <desc>Created with sketchtool.</desc>
    <defs></defs>
    <g id="Symbols" stroke="none" stroke-width="1" fill="none" fill-rule="evenodd">
        <g id="break_active" transform="translate(-11.000000, -18.000000)" fill="#AD4C38">
            <path d="M19.7,39.6 C19.7,39.1875 19.553125,38.834375 19.259375,38.540625 C18.965625,38.246875 18.6125,38.1 18.2,38.1 C17.7875,38.1 17.434375,38.246875 17.140625,38.540625 C16.846875,38.834375 16.7,39.1875 16.7,39.6 C16.7,40.0125 16.846875,40.365625 17.140625,40.659375 C17.434375,40.953125 17.7875,41.1 18.2,41.1 C18.6125,41.1 18.965625,40.953125 19.259375,40.659375 C19.553125,40.365625 19.7,40.0125 19.7,39.6 L19.7,39.6 Z M23.6,36.6 L23.6,23.4 C23.6,23.2375 23.540625,23.096875 23.421875,22.978125 C23.303125,22.859375 23.1625,22.8 23,22.8 L13.4,22.8 C13.2375,22.8 13.096875,22.859375 12.978125,22.978125 C12.859375,23.096875 12.8,23.2375 12.8,23.4 L12.8,36.6 C12.8,36.7625 12.859375,36.903125 12.978125,37.021875 C13.096875,37.140625 13.2375,37.2 13.4,37.2 L23,37.2 C23.1625,37.2 23.303125,37.140625 23.421875,37.021875 C23.540625,36.903125 23.6,36.7625 23.6,36.6 L23.6,36.6 Z M20,20.7 C20,20.5 19.9,20.4 19.7,20.4 L16.7,20.4 C16.5,20.4 16.4,20.5 16.4,20.7 C16.4,20.9 16.5,21 16.7,21 L19.7,21 C19.9,21 20,20.9 20,20.7 L20,20.7 Z M25.4,20.4 L25.4,39.6 C25.4,40.25 25.1625,40.8125 24.6875,41.2875 C24.2125,41.7625 23.65,42 23,42 L13.4,42 C12.75,42 12.1875,41.7625 11.7125,41.2875 C11.2375,40.8125 11,40.25 11,39.6 L11,20.4 C11,19.75 11.2375,19.1875 11.7125,18.7125 C12.1875,18.2375 12.75,18 13.4,18 L23,18 C23.65,18 24.2125,18.2375 24.6875,18.7125 C25.1625,19.1875 25.4,19.75 25.4,20.4 L25.4,20.4 Z" id="phone_icon"></path>
        </g>
    </g>
</svg>