<?xml version="1.0" encoding="UTF-8" standalone="no"?>
<svg width="20px" height="24px" viewBox="0 0 20 24" version="1.1" xmlns="http://www.w3.org/2000/svg" xmlns:xlink="http://www.w3.org/1999/xlink">
    <!-- Generator: sketchtool 3.8.3 (29802) - http://www.bohemiancoding.com/sketch -->
    <title>9147C812-A804-4345-8008-8EF27B6A12A2</title>
    <desc>Created with sketchtool.</desc>
    <defs></defs>
    <g id="Design" stroke="none" stroke-width="1" fill="none" fill-rule="evenodd">
        <g id="home_step_1" transform="translate(-1587.000000, -329.000000)" fill="#F1C2B9">
            <g id="side_1" transform="translate(1530.000000, 90.000000)">
                <g id="select" transform="translate(50.000000, 160.000000)">
                    <path d="M17.9090909,100.818182 C17.9090909,100.522727 17.8011364,100.267045 17.5852273,100.051136 C17.3693182,99.8352273 17.1136364,99.7272727 16.8181818,99.7272727 C16.5227273,99.7272727 16.2670455,99.8352273 16.0511364,100.051136 C15.8352273,100.267045 15.7272727,100.522727 15.7272727,100.818182 C15.7272727,101.113636 15.8352273,101.369318 16.0511364,101.585227 C16.2670455,101.801136 16.5227273,101.909091 16.8181818,101.909091 C17.1136364,101.909091 17.3693182,101.801136 17.5852273,101.585227 C17.8011364,101.369318 17.9090909,101.113636 17.9090909,100.818182 L17.9090909,100.818182 Z M24.4545455,98.0909091 L24.4545455,81.7272727 C24.4545455,81.5795454 24.4005682,81.4517045 24.2926136,81.34375 C24.1846591,81.2357955 24.0568182,81.1818182 23.9090909,81.1818182 L9.72727273,81.1818182 C9.57954545,81.1818182 9.45170454,81.2357955 9.34375,81.34375 C9.23579546,81.4517045 9.18181818,81.5795454 9.18181818,81.7272727 L9.18181818,98.0909091 C9.18181818,98.2386364 9.23579546,98.3664773 9.34375,98.4744318 C9.45170454,98.5823864 9.57954545,98.6363636 9.72727273,98.6363636 L23.9090909,98.6363636 C24.0568182,98.6363636 24.1846591,98.5823864 24.2926136,98.4744318 C24.4005682,98.3664773 24.4545455,98.2386364 24.4545455,98.0909091 L24.4545455,98.0909091 Z M26.6363636,81.7272727 L26.6363636,100.272727 C26.6363636,101.022727 26.3693182,101.664773 25.8352273,102.198864 C25.3011364,102.732955 24.6590909,103 23.9090909,103 L9.72727273,103 C8.97727273,103 8.33522727,102.732955 7.80113636,102.198864 C7.26704546,101.664773 7,101.022727 7,100.272727 L7,81.7272727 C7,80.9772727 7.26704546,80.3352273 7.80113636,79.8011364 C8.33522727,79.2670455 8.97727273,79 9.72727273,79 L23.9090909,79 C24.6590909,79 25.3011364,79.2670455 25.8352273,79.8011364 C26.3693182,80.3352273 26.6363636,80.9772727 26.6363636,81.7272727 L26.6363636,81.7272727 Z" id="tablet_icon"></path>
                </g>
            </g>
        </g>
    </g>
</svg>