<?xml version="1.0" encoding="UTF-8" standalone="no"?>
<svg width="40px" height="40px" viewBox="0 0 40 40" version="1.1" xmlns="http://www.w3.org/2000/svg" xmlns:xlink="http://www.w3.org/1999/xlink">
    <!-- Generator: sketchtool 3.8.3 (29802) - http://www.bohemiancoding.com/sketch -->
    <title>25545F01-9673-4534-933A-7695DC6275F9</title>
    <desc>Created with sketchtool.</desc>
    <defs></defs>
    <g id="Symbols" stroke="none" stroke-width="1" fill="none" fill-rule="evenodd">
        <g id="menu_shop" transform="translate(-1835.000000, -10.000000)">
            <g id="userpic" transform="translate(1835.000000, 10.000000)">
                <rect id="bg" fill="#00A1BE" x="0" y="0" width="40" height="40"></rect>
                <path d="M24.6363636,12.3636364 C24.6363636,10.0276364 22.6087273,8 20.2727273,8 C17.9367273,8 15.9090909,10.0276364 15.9090909,12.3636364 C15.9090909,14.6996364 17.9367273,16.7272727 20.2727273,16.7272727 C22.6087273,16.7272727 24.6363636,14.6996364 24.6363636,12.3636364 L24.6363636,12.3636364 Z M20.2727273,18.1818182 C16.4501818,18.1818182 13,22.3054545 13,27.4298182 C13,32.5541818 27.5454545,32.5541818 27.5454545,27.4298182 C27.5454545,22.3054545 24.0952727,18.1818182 20.2727273,18.1818182 L20.2727273,18.1818182 Z" id="Shape" fill="#FFFFFF"></path>
            </g>
        </g>
    </g>
</svg>