<?xml version="1.0" encoding="UTF-8" standalone="no"?>
<svg width="175px" height="175px" viewBox="0 0 175 175" version="1.1" xmlns="http://www.w3.org/2000/svg" xmlns:xlink="http://www.w3.org/1999/xlink">
    <!-- Generator: sketchtool 3.8.3 (29802) - http://www.bohemiancoding.com/sketch -->
    <title>5DA4EEFF-D444-4B4C-88EB-810C5565077A</title>
    <desc>Created with sketchtool.</desc>
    <defs>
        <rect id="path-1" x="0" y="0" width="165" height="165"></rect>
        <filter x="-50%" y="-50%" width="200%" height="200%" filterUnits="objectBoundingBox" id="filter-2">
            <feOffset dx="0" dy="0" in="SourceAlpha" result="shadowOffsetOuter1"></feOffset>
            <feGaussianBlur stdDeviation="2.5" in="shadowOffsetOuter1" result="shadowBlurOuter1"></feGaussianBlur>
            <feColorMatrix values="0 0 0 0 0   0 0 0 0 0   0 0 0 0 0  0 0 0 0.250905797 0" type="matrix" in="shadowBlurOuter1"></feColorMatrix>
        </filter>
    </defs>
    <g id="Design" stroke="none" stroke-width="1" fill="none" fill-rule="evenodd">
        <g id="account_personal_data" transform="translate(-510.000000, -85.000000)">
            <g id="userpic" transform="translate(515.000000, 90.000000)">
                <g id="bg">
                    <use fill="black" fill-opacity="1" filter="url(#filter-2)" xlink:href="#path-1"></use>
                    <use fill="#00A1BE" fill-rule="evenodd" xlink:href="#path-1"></use>
                </g>
                <path d="M145,28.6363636 L145,31.3636364 C145,31.7424242 144.867424,32.0643939 144.602273,32.3295455 C144.337121,32.594697 144.015152,32.7272727 143.636364,32.7272727 L137.727273,32.7272727 L137.727273,38.6363636 C137.727273,39.0151515 137.594697,39.3371212 137.329545,39.6022727 C137.064394,39.8674242 136.742424,40 136.363636,40 L133.636364,40 C133.257576,40 132.935606,39.8674242 132.670455,39.6022727 C132.405303,39.3371212 132.272727,39.0151515 132.272727,38.6363636 L132.272727,32.7272727 L126.363636,32.7272727 C125.984848,32.7272727 125.662879,32.594697 125.397727,32.3295455 C125.132576,32.0643939 125,31.7424242 125,31.3636364 L125,28.6363636 C125,28.2575758 125.132576,27.9356061 125.397727,27.6704545 C125.662879,27.405303 125.984848,27.2727273 126.363636,27.2727273 L132.272727,27.2727273 L132.272727,21.3636364 C132.272727,20.9848485 132.405303,20.6628788 132.670455,20.3977273 C132.935606,20.1325758 133.257576,20 133.636364,20 L136.363636,20 C136.742424,20 137.064394,20.1325758 137.329545,20.3977273 C137.594697,20.6628788 137.727273,20.9848485 137.727273,21.3636364 L137.727273,27.2727273 L143.636364,27.2727273 C144.015152,27.2727273 144.337121,27.405303 144.602273,27.6704545 C144.867424,27.9356061 145,28.2575758 145,28.6363636 L145,28.6363636 Z" id="Shape" fill="#FFFFFF"></path>
                <path d="M83,74.7307692 C87.1319444,74.7307692 90.6649306,76.1864984 93.5989583,79.0979567 C96.5329861,82.009415 98,85.5152244 98,89.6153846 C98,93.7155449 96.5329861,97.2213542 93.5989583,100.132813 C90.6649306,103.044271 87.1319444,104.5 83,104.5 C78.8680556,104.5 75.3350694,103.044271 72.4010417,100.132813 C69.4670139,97.2213542 68,93.7155449 68,89.6153846 C68,85.5152244 69.4670139,82.009415 72.4010417,79.0979567 C75.3350694,76.1864984 78.8680556,74.7307692 83,74.7307692 L83,74.7307692 Z M119.666667,53.2307692 C123.347222,53.2307692 126.489583,54.5228365 129.09375,57.1069712 C131.697917,59.6911058 133,62.8092949 133,66.4615385 L133,112.769231 C133,116.421474 131.697917,119.539663 129.09375,122.123798 C126.489583,124.707933 123.347222,126 119.666667,126 L46.3333333,126 C42.6527778,126 39.5104167,124.707933 36.90625,122.123798 C34.3020833,119.539663 33,116.421474 33,112.769231 L33,66.4615385 C33,62.8092949 34.3020833,59.6911058 36.90625,57.1069712 C39.5104167,54.5228365 42.6527778,53.2307692 46.3333333,53.2307692 L58,53.2307692 L60.65625,46.2019231 C61.3159722,44.5136218 62.5225694,43.0578926 64.2760417,41.8347356 C66.0295139,40.6115785 67.8263889,40 69.6666667,40 L96.3333333,40 C98.1736111,40 99.9704861,40.6115785 101.723958,41.8347356 C103.477431,43.0578926 104.684028,44.5136218 105.34375,46.2019231 L108,53.2307692 L119.666667,53.2307692 L119.666667,53.2307692 Z M83,112.769231 C89.4236111,112.769231 94.9184028,110.503806 99.484375,105.972957 C104.050347,101.442107 106.333333,95.9895833 106.333333,89.6153846 C106.333333,83.2411859 104.050347,77.7886619 99.484375,73.2578125 C94.9184028,68.7269631 89.4236111,66.4615385 83,66.4615385 C76.5763889,66.4615385 71.0815972,68.7269631 66.515625,73.2578125 C61.9496528,77.7886619 59.6666667,83.2411859 59.6666667,89.6153846 C59.6666667,95.9895833 61.9496528,101.442107 66.515625,105.972957 C71.0815972,110.503806 76.5763889,112.769231 83,112.769231 L83,112.769231 Z" id="Shape" fill="#FFFFFF"></path>
            </g>
        </g>
    </g>
</svg>